<svg width="730" height="252" viewBox="0 0 730 252" fill="none" xmlns="http://www.w3.org/2000/svg">
<g opacity="0.7" filter="url(#filter0_d_34656_8170)">
<path fill-rule="evenodd" clip-rule="evenodd" d="M222.691 222.15C216.062 226.463 209.382 230.118 202.755 233.07C176.576 244.731 151.566 245.309 133.528 232.832C129.408 229.982 125.8 226.554 122.709 222.621C141.826 209.818 160.399 191.651 176.05 169.181C213.688 115.144 222.024 54.0225 198.764 21.8811C205.409 17.5544 212.105 13.8894 218.748 10.9303C244.927 -0.73091 269.937 -1.30897 287.975 11.1678C292.085 14.0104 295.684 17.4278 298.77 21.3477C279.637 34.1528 261.046 52.3309 245.382 74.819C207.732 128.873 199.403 190.017 222.691 222.15ZM197.561 20.2807C230.8 -1.3994 265.468 -6.8319 289.118 9.52681C293.452 12.5243 297.227 16.1229 300.448 20.2391C333.657 -1.40633 368.284 -6.82145 391.912 9.52681C396.258 12.5344 400.043 16.1471 403.27 20.2807C436.51 -1.3994 471.177 -6.8319 494.828 9.52681C499.161 12.5243 502.936 16.1229 506.158 20.2391C539.367 -1.40634 573.994 -6.82145 597.621 9.52681C601.968 12.5344 605.752 16.147 608.98 20.2805C642.219 -1.39942 676.887 -6.83187 700.537 9.52681C716.784 20.7645 725.178 40.4502 726 64.1898H723.997C723.178 40.8978 714.94 21.9208 699.394 11.1678C681.356 -1.30897 656.346 -0.73091 630.167 10.9303C623.524 13.8894 616.828 17.5543 610.183 21.8809C633.443 54.0223 625.107 115.144 587.469 169.181C571.818 191.651 553.244 209.818 534.128 222.621C537.219 226.554 540.826 229.982 544.947 232.832C562.985 245.309 587.995 244.731 614.174 233.07C625.609 227.976 637.2 220.791 648.419 211.74V214.299C611.465 243.586 570.575 252.991 543.803 234.473C539.459 231.468 535.676 227.859 532.45 223.731C499.227 245.401 464.579 250.829 440.94 234.473C436.604 231.473 432.828 227.871 429.605 223.75C396.38 245.404 361.734 250.824 338.094 234.473C333.75 231.468 329.967 227.859 326.74 223.73C293.517 245.401 258.869 250.829 235.231 234.473C230.895 231.473 227.118 227.871 223.896 223.75C190.67 245.404 156.024 250.824 132.385 234.473C128.04 231.468 124.258 227.859 121.031 223.73C87.8078 245.401 53.1597 250.829 29.5212 234.473C-8.13837 208.416 -3.59328 136.936 39.673 74.819C82.9392 12.7018 148.542 -16.5305 186.202 9.52681C190.549 12.5344 194.333 16.1471 197.561 20.2807ZM119.827 222.13C113.19 226.452 106.503 230.113 99.8677 233.069C73.6975 244.731 48.6961 245.309 30.6643 232.832C12.6325 220.356 4.43568 196.807 6.2488 168.293C8.05914 139.822 19.8577 106.767 41.3176 75.957C62.7775 45.147 89.7252 22.574 115.856 10.9306C142.026 -0.730646 167.027 -1.3086 185.059 11.1679C189.182 14.0207 192.791 17.4522 195.883 21.3896C176.766 34.1923 158.192 52.3553 142.54 74.819C104.885 128.862 96.5489 189.992 119.827 222.13ZM121.502 221.025C111.916 207.833 107.76 189.427 109.104 168.293C110.915 139.822 122.718 106.767 144.185 75.9567C159.738 53.6352 178.172 35.6371 197.089 22.9864C206.666 36.1777 210.818 54.5793 209.474 75.7073C207.664 104.178 195.866 137.233 174.406 168.043C158.853 190.371 140.419 208.374 121.502 221.025ZM224.367 221.045C214.774 207.852 210.614 189.438 211.958 168.293C213.769 139.822 225.567 106.767 247.027 75.957C262.592 53.61 281.045 35.5964 299.978 22.9435C307.792 33.6804 312.005 47.8768 312.578 64.1898H314.581C314.007 47.5897 309.729 32.9718 301.654 21.8385C308.275 17.5304 314.946 13.8799 321.565 10.9306C347.735 -0.730646 372.737 -1.3086 390.768 11.1679C394.891 14.0207 398.5 17.4522 401.593 21.3896C382.475 34.1923 363.901 52.3553 348.249 74.819C310.594 128.862 302.258 189.992 325.536 222.13C318.899 226.452 312.212 230.113 305.577 233.069C279.407 244.731 254.406 245.309 236.374 232.832C232.262 229.987 228.661 226.566 225.574 222.641C229.411 220.074 233.226 217.29 237 214.299V211.74C232.831 215.103 228.611 218.209 224.367 221.045ZM518.287 64.1898C517.714 47.8768 513.501 33.6804 505.688 22.9435C486.754 35.5963 468.302 53.61 452.737 75.957C431.277 106.767 419.478 139.822 417.668 168.293C416.323 189.438 420.483 207.852 430.076 221.045C434.321 218.209 438.541 215.103 442.71 211.74V214.299C438.936 217.29 435.12 220.074 431.283 222.641C434.37 226.566 437.971 229.987 442.083 232.832C460.115 245.309 485.116 244.731 511.287 233.069C517.921 230.113 524.609 226.452 531.246 222.13C507.968 189.992 516.304 128.862 553.959 74.819C569.61 52.3553 588.185 34.1922 607.302 21.3895C604.209 17.4521 600.601 14.0206 596.478 11.1679C578.446 -1.3086 553.445 -0.730646 527.274 10.9306C520.656 13.8799 513.984 17.5304 507.363 21.8385C515.439 32.9718 519.716 47.5897 520.291 64.1898H518.287ZM493.685 11.1678C497.794 14.0104 501.393 17.4278 504.48 21.3477C485.347 34.1527 466.755 52.3309 451.092 74.819C413.442 128.873 405.113 190.017 428.401 222.15C421.771 226.463 415.092 230.118 408.465 233.07C382.286 244.731 357.276 245.309 339.238 232.832C335.117 229.982 331.51 226.554 328.418 222.621C347.535 209.818 366.109 191.651 381.76 169.181C419.398 115.144 427.733 54.0225 404.473 21.8811C411.118 17.5544 417.814 13.8894 424.457 10.9303C450.636 -0.73091 475.646 -1.30897 493.685 11.1678ZM585.825 168.043C570.272 190.371 551.838 208.374 532.921 221.025C523.335 207.833 519.179 189.427 520.523 168.293C522.334 139.822 534.136 106.767 555.604 75.9567C571.156 53.6351 589.591 35.637 608.508 22.9863C618.085 36.1776 622.237 54.5792 620.893 75.7073C619.083 104.178 607.284 137.233 585.825 168.043ZM327.212 221.025C346.128 208.374 364.563 190.371 380.115 168.043C401.575 137.233 413.374 104.178 415.184 75.7073C416.527 54.5793 412.375 36.1777 402.798 22.9864C383.881 35.6371 365.447 53.6352 349.894 75.9567C328.427 106.767 316.625 139.822 314.814 168.293C313.469 189.427 317.626 207.833 327.212 221.025Z" fill="white"/>
</g>
<defs>
<filter id="filter0_d_34656_8170" x="0" y="0" width="730" height="252" filterUnits="userSpaceOnUse" color-interpolation-filters="sRGB">
<feFlood flood-opacity="0" result="BackgroundImageFix"/>
<feColorMatrix in="SourceAlpha" type="matrix" values="0 0 0 0 0 0 0 0 0 0 0 0 0 0 0 0 0 0 127 0" result="hardAlpha"/>
<feOffset dy="4"/>
<feGaussianBlur stdDeviation="2"/>
<feComposite in2="hardAlpha" operator="out"/>
<feColorMatrix type="matrix" values="0 0 0 0 0 0 0 0 0 0 0 0 0 0 0 0 0 0 0.25 0"/>
<feBlend mode="normal" in2="BackgroundImageFix" result="effect1_dropShadow_34656_8170"/>
<feBlend mode="normal" in="SourceGraphic" in2="effect1_dropShadow_34656_8170" result="shape"/>
</filter>
</defs>
</svg>
